<svg width="257" height="204" viewBox="0 0 257 204" fill="none" xmlns="http://www.w3.org/2000/svg">
<g filter="url(#filter0_ddi_0_1)">
<path d="M76.919 147.828C74.9262 147.828 73.9298 147.828 73.0789 147.493C72.3586 147.21 71.717 146.757 71.2083 146.174C70.6074 145.485 70.2727 144.547 69.6034 142.67L55.465 103.022C55.1168 102.045 54.9426 101.557 54.8753 101.056C54.8179 100.629 54.8179 100.197 54.8753 99.7706C54.9426 99.2693 55.1168 98.781 55.465 97.8044L69.6033 58.158C70.2727 56.2811 70.6074 55.3426 71.2083 54.6535C71.717 54.0701 72.3586 53.6178 73.0789 53.3346C73.9298 53 74.9262 53 76.9189 53L179.581 53C181.553 53 182.54 53 183.384 53.329C184.099 53.6075 184.737 54.0525 185.246 54.6272C185.847 55.3059 186.187 56.2312 186.869 58.0818L201.476 97.7288C201.846 98.7332 202.031 99.2353 202.103 99.7518C202.164 100.191 202.164 100.637 202.103 101.076C202.031 101.592 201.846 102.094 201.476 103.099L186.869 142.746C186.187 144.596 185.847 145.522 185.246 146.2C184.737 146.775 184.099 147.22 183.384 147.499C182.54 147.828 181.553 147.828 179.581 147.828L76.919 147.828Z" fill="url(#paint0_diamond_0_1)"/>
<path d="M76.919 147.828C74.9262 147.828 73.9298 147.828 73.0789 147.493C72.3586 147.21 71.717 146.757 71.2083 146.174C70.6074 145.485 70.2727 144.547 69.6034 142.67L55.465 103.022C55.1168 102.045 54.9426 101.557 54.8753 101.056C54.8179 100.629 54.8179 100.197 54.8753 99.7706C54.9426 99.2693 55.1168 98.781 55.465 97.8044L69.6033 58.158C70.2727 56.2811 70.6074 55.3426 71.2083 54.6535C71.717 54.0701 72.3586 53.6178 73.0789 53.3346C73.9298 53 74.9262 53 76.9189 53L179.581 53C181.553 53 182.54 53 183.384 53.329C184.099 53.6075 184.737 54.0525 185.246 54.6272C185.847 55.3059 186.187 56.2312 186.869 58.0818L201.476 97.7288C201.846 98.7332 202.031 99.2353 202.103 99.7518C202.164 100.191 202.164 100.637 202.103 101.076C202.031 101.592 201.846 102.094 201.476 103.099L186.869 142.746C186.187 144.596 185.847 145.522 185.246 146.2C184.737 146.775 184.099 147.22 183.384 147.499C182.54 147.828 181.553 147.828 179.581 147.828L76.919 147.828Z" fill="url(#paint1_diamond_0_1)"/>
<path d="M76.919 147.828C74.9262 147.828 73.9298 147.828 73.0789 147.493C72.3586 147.21 71.717 146.757 71.2083 146.174C70.6074 145.485 70.2727 144.547 69.6034 142.67L55.465 103.022C55.1168 102.045 54.9426 101.557 54.8753 101.056C54.8179 100.629 54.8179 100.197 54.8753 99.7706C54.9426 99.2693 55.1168 98.781 55.465 97.8044L69.6033 58.158C70.2727 56.2811 70.6074 55.3426 71.2083 54.6535C71.717 54.0701 72.3586 53.6178 73.0789 53.3346C73.9298 53 74.9262 53 76.9189 53L179.581 53C181.553 53 182.54 53 183.384 53.329C184.099 53.6075 184.737 54.0525 185.246 54.6272C185.847 55.3059 186.187 56.2312 186.869 58.0818L201.476 97.7288C201.846 98.7332 202.031 99.2353 202.103 99.7518C202.164 100.191 202.164 100.637 202.103 101.076C202.031 101.592 201.846 102.094 201.476 103.099L186.869 142.746C186.187 144.596 185.847 145.522 185.246 146.2C184.737 146.775 184.099 147.22 183.384 147.499C182.54 147.828 181.553 147.828 179.581 147.828L76.919 147.828Z" fill="url(#paint2_linear_0_1)"/>
</g>
<g filter="url(#filter1_i_0_1)">
<path d="M84.0086 140.646C82.0465 140.646 81.0654 140.646 80.224 140.319C79.5116 140.043 78.875 139.602 78.3666 139.031C77.7661 138.358 77.4223 137.439 76.7345 135.601L64.5839 103.136C64.2029 102.118 64.0124 101.609 63.9387 101.085C63.8761 100.64 63.8761 100.188 63.9387 99.742C64.0124 99.2181 64.2029 98.7091 64.5839 97.6912L76.7345 65.2261C77.4223 63.3885 77.7661 62.4697 78.3666 61.796C78.875 61.2256 79.5116 60.7841 80.224 60.5079C81.0654 60.1817 82.0465 60.1817 84.0086 60.1817L174.587 60.1817C176.6 60.1817 177.607 60.1817 178.464 60.5218C179.189 60.8097 179.834 61.2693 180.343 61.8613C180.944 62.5606 181.272 63.5121 181.929 65.4152L193.131 97.8803C193.458 98.8294 193.622 99.3039 193.685 99.7903C193.739 100.204 193.739 100.623 193.685 101.037C193.622 101.523 193.458 101.998 193.131 102.947L181.929 135.412C181.272 137.315 180.944 138.267 180.343 138.966C179.834 139.558 179.189 140.018 178.464 140.305C177.607 140.646 176.6 140.646 174.587 140.646L84.0086 140.646Z" fill="#E3F0FF"/>
</g>
<g filter="url(#filter2_ddi_0_1)">
<path d="M76.9572 147.828C74.9514 147.828 73.9485 147.828 73.0937 147.49C72.37 147.203 71.7264 146.746 71.2176 146.158C70.6166 145.462 70.2859 144.515 69.6246 142.622L55.429 101.974C55.0941 101.015 54.9266 100.535 54.8618 100.044C54.8067 99.6251 54.8067 99.2013 54.8618 98.7828C54.9266 98.291 55.0941 97.8114 55.4291 96.8524L69.6246 56.206C70.2859 54.3124 70.6166 53.3657 71.2176 52.6701C71.7264 52.0813 72.37 51.6243 73.0936 51.3381C73.9485 51 74.9514 51 76.9571 51L179.542 51C181.528 51 182.521 51 183.369 51.3326C184.088 51.6141 184.728 52.0638 185.237 52.6441C185.838 53.3295 186.174 54.2633 186.848 56.1308L201.514 96.7778C201.87 97.7643 202.048 98.2576 202.117 98.7643C202.176 99.1953 202.176 99.6323 202.117 100.063C202.048 100.57 201.87 101.063 201.514 102.05L186.848 142.697C186.174 144.564 185.838 145.498 185.237 146.184C184.728 146.764 184.088 147.214 183.369 147.495C182.521 147.828 181.528 147.828 179.542 147.828L76.9572 147.828Z" fill="url(#paint3_diamond_0_1)"/>
<path d="M76.9572 147.828C74.9514 147.828 73.9485 147.828 73.0937 147.49C72.37 147.203 71.7264 146.746 71.2176 146.158C70.6166 145.462 70.2859 144.515 69.6246 142.622L55.429 101.974C55.0941 101.015 54.9266 100.535 54.8618 100.044C54.8067 99.6251 54.8067 99.2013 54.8618 98.7828C54.9266 98.291 55.0941 97.8114 55.4291 96.8524L69.6246 56.206C70.2859 54.3124 70.6166 53.3657 71.2176 52.6701C71.7264 52.0813 72.37 51.6243 73.0936 51.3381C73.9485 51 74.9514 51 76.9571 51L179.542 51C181.528 51 182.521 51 183.369 51.3326C184.088 51.6141 184.728 52.0638 185.237 52.6441C185.838 53.3295 186.174 54.2633 186.848 56.1308L201.514 96.7778C201.87 97.7643 202.048 98.2576 202.117 98.7643C202.176 99.1953 202.176 99.6323 202.117 100.063C202.048 100.57 201.87 101.063 201.514 102.05L186.848 142.697C186.174 144.564 185.838 145.498 185.237 146.184C184.728 146.764 184.088 147.214 183.369 147.495C182.521 147.828 181.528 147.828 179.542 147.828L76.9572 147.828Z" fill="url(#paint4_diamond_0_1)"/>
<path d="M76.9572 147.828C74.9514 147.828 73.9485 147.828 73.0937 147.49C72.37 147.203 71.7264 146.746 71.2176 146.158C70.6166 145.462 70.2859 144.515 69.6246 142.622L55.429 101.974C55.0941 101.015 54.9266 100.535 54.8618 100.044C54.8067 99.6251 54.8067 99.2013 54.8618 98.7828C54.9266 98.291 55.0941 97.8114 55.4291 96.8524L69.6246 56.206C70.2859 54.3124 70.6166 53.3657 71.2176 52.6701C71.7264 52.0813 72.37 51.6243 73.0936 51.3381C73.9485 51 74.9514 51 76.9571 51L179.542 51C181.528 51 182.521 51 183.369 51.3326C184.088 51.6141 184.728 52.0638 185.237 52.6441C185.838 53.3295 186.174 54.2633 186.848 56.1308L201.514 96.7778C201.87 97.7643 202.048 98.2576 202.117 98.7643C202.176 99.1953 202.176 99.6323 202.117 100.063C202.048 100.57 201.87 101.063 201.514 102.05L186.848 142.697C186.174 144.564 185.838 145.498 185.237 146.184C184.728 146.764 184.088 147.214 183.369 147.495C182.521 147.828 181.528 147.828 179.542 147.828L76.9572 147.828Z" fill="url(#paint5_linear_0_1)"/>
</g>
<g filter="url(#filter3_i_0_1)">
<path d="M84.0478 140.494C82.0723 140.494 81.0846 140.494 80.239 140.164C79.5232 139.885 78.8844 139.439 78.3758 138.863C77.7751 138.182 77.4352 137.255 76.7554 135.4L64.5447 102.087C64.1781 101.087 63.9949 100.587 63.924 100.073C63.8637 99.6353 63.8637 99.1919 63.924 98.7547C63.9949 98.2406 64.1781 97.7406 64.5447 96.7407L76.7554 63.427C77.4352 61.5723 77.7751 60.6449 78.3758 59.9645C78.8844 59.3885 79.5232 58.9422 80.239 58.663C81.0846 58.3331 82.0723 58.3331 84.0478 58.3331L174.549 58.3331C176.575 58.3331 177.588 58.3331 178.449 58.6767C179.178 58.9675 179.825 59.4317 180.334 60.029C180.935 60.7347 181.259 61.6943 181.908 63.6136L193.164 96.9272C193.479 97.8591 193.637 98.325 193.698 98.8022C193.75 99.2082 193.75 99.6191 193.698 100.025C193.637 100.502 193.479 100.968 193.164 101.9L181.908 135.214C181.259 137.133 180.935 138.093 180.334 138.798C179.825 139.396 179.178 139.86 178.449 140.15C177.588 140.494 176.575 140.494 174.549 140.494L84.0478 140.494Z" fill="#E3F0FF"/>
</g>
<g filter="url(#filter4_dd_0_1)">
<path d="M95.8574 131.343C94.538 131.343 93.8784 131.343 93.302 131.133C92.8136 130.956 92.371 130.672 92.0067 130.301C91.5766 129.864 91.3024 129.264 90.7538 128.064L79.605 103.679C79.2085 102.812 79.0102 102.378 78.9339 101.926C78.8691 101.542 78.8691 101.15 78.9339 100.766C79.0102 100.314 79.2085 99.8799 79.605 99.0125L90.7538 74.6274C91.3024 73.4275 91.5766 72.8276 92.0066 72.3904C92.371 72.02 92.8136 71.7357 93.302 71.5584C93.8784 71.3491 94.538 71.3491 95.8573 71.3491L164.048 71.3491C165.414 71.3491 166.097 71.3491 166.689 71.5709C167.19 71.7587 167.641 72.0595 168.007 72.4498C168.439 72.9106 168.702 73.5411 169.228 74.8021L179.39 99.1872C179.725 99.992 179.893 100.394 179.958 100.811C180.013 101.166 180.013 101.526 179.958 101.88C179.893 102.297 179.725 102.7 179.39 103.505L169.228 127.89C168.702 129.151 168.439 129.781 168.007 130.242C167.641 130.632 167.19 130.933 166.689 131.121C166.097 131.343 165.414 131.343 164.048 131.343L95.8574 131.343Z" fill="url(#paint6_diamond_0_1)"/>
<path d="M95.8574 131.343C94.538 131.343 93.8784 131.343 93.302 131.133C92.8136 130.956 92.371 130.672 92.0067 130.301C91.5766 129.864 91.3024 129.264 90.7538 128.064L79.605 103.679C79.2085 102.812 79.0102 102.378 78.9339 101.926C78.8691 101.542 78.8691 101.15 78.9339 100.766C79.0102 100.314 79.2085 99.8799 79.605 99.0125L90.7538 74.6274C91.3024 73.4275 91.5766 72.8276 92.0066 72.3904C92.371 72.02 92.8136 71.7357 93.302 71.5584C93.8784 71.3491 94.538 71.3491 95.8573 71.3491L164.048 71.3491C165.414 71.3491 166.097 71.3491 166.689 71.5709C167.19 71.7587 167.641 72.0595 168.007 72.4498C168.439 72.9106 168.702 73.5411 169.228 74.8021L179.39 99.1872C179.725 99.992 179.893 100.394 179.958 100.811C180.013 101.166 180.013 101.526 179.958 101.88C179.893 102.297 179.725 102.7 179.39 103.505L169.228 127.89C168.702 129.151 168.439 129.781 168.007 130.242C167.641 130.632 167.19 130.933 166.689 131.121C166.097 131.343 165.414 131.343 164.048 131.343L95.8574 131.343Z" fill="url(#paint7_linear_0_1)"/>
</g>
<path d="M113.818 100.785C117.626 99.65 126.173 96.0013 128.922 85.6632C129.055 85.1626 129.803 85.142 129.963 85.6355C131.232 89.5447 135.03 97.683 145.205 100.742C145.707 100.893 145.714 101.558 145.213 101.712C141.498 102.851 133.391 106.488 130.103 117.057C129.951 117.547 129.208 117.541 129.064 117.048C127.939 113.194 124.368 105.061 113.812 101.754C113.314 101.598 113.317 100.934 113.818 100.785Z" fill="white"/>
<g filter="url(#filter5_f_0_1)">
<path d="M113.818 100.785C117.626 99.65 126.173 96.0013 128.922 85.6632C129.055 85.1626 129.803 85.142 129.963 85.6355C131.232 89.5447 135.03 97.683 145.205 100.742C145.707 100.893 145.714 101.558 145.213 101.712C141.498 102.851 133.391 106.488 130.103 117.057C129.951 117.547 129.208 117.541 129.064 117.048C127.939 113.194 124.368 105.061 113.812 101.754C113.314 101.598 113.317 100.934 113.818 100.785Z" fill="white" fill-opacity="0.9"/>
</g>
<path d="M97 28.1818L98.875 30L103 26" stroke="url(#paint8_linear_0_1)" stroke-width="1.5" stroke-linecap="round" stroke-linejoin="round"/>
<rect x="173.25" y="13.4135" width="9.83831" height="9.83831" transform="rotate(-19.6279 173.25 13.4135)" fill="#266AE3"/>
<rect x="7" y="104.459" width="9.83831" height="9.83831" transform="rotate(-71.881 7 104.459)" fill="#266AE3"/>
<path d="M215.066 82.4276C213.348 80.5257 214.28 77.4787 216.767 76.8623C219.325 76.2287 221.597 78.6259 220.826 81.1457C220.056 83.6654 216.833 84.3829 215.066 82.4276Z" fill="#266AE3"/>
<path d="M42.4713 21.2823C43.3848 19.6989 45.6571 19.662 46.6216 21.2149C47.6131 22.8114 46.485 24.8794 44.6059 24.9099C42.7268 24.9404 41.5321 22.9102 42.4713 21.2823Z" fill="#266AE3"/>
<circle cx="239.477" cy="98.3771" r="3.32886" stroke="#37A3C9" stroke-width="2"/>
<circle cx="78.1306" cy="38.9537" r="2.93532" stroke="#37A3C9" stroke-width="2"/>
<path d="M32.2858 51.1534L25.9893 56.4661M36.2212 65.5173L28.744 63.5497M22.054 70.83L25.9893 78.3072M13.9866 70.83L10.6415 78.3072M9.26418 63.5497L1 65.5173M11.4286 56.4661L4.93532 51.1534M18.5122 52.5308V44.0698" stroke="#37A3C9" stroke-width="1.5" stroke-linecap="round" stroke-linejoin="round"/>
<path d="M251.481 12.0836L245.185 17.3963M255.416 26.4475L247.939 24.4799M241.249 31.7602L245.185 39.2373M233.182 31.7602L229.837 39.2373M228.459 24.4799L220.195 26.4475M230.624 17.3963L224.131 12.0836M237.708 13.4609V5" stroke="#37A3C9" stroke-width="1.5" stroke-linecap="round" stroke-linejoin="round"/>
<defs>
<filter id="filter0_ddi_0_1" x="1.98631" y="2.8144" width="253.008" height="200.52" filterUnits="userSpaceOnUse" color-interpolation-filters="sRGB">
<feFlood flood-opacity="0" result="BackgroundImageFix"/>
<feColorMatrix in="SourceAlpha" type="matrix" values="0 0 0 0 0 0 0 0 0 0 0 0 0 0 0 0 0 0 127 0" result="hardAlpha"/>
<feOffset dy="2.66037"/>
<feGaussianBlur stdDeviation="22.1928"/>
<feComposite in2="hardAlpha" operator="out"/>
<feColorMatrix type="matrix" values="0 0 0 0 0.843137 0 0 0 0 0.886275 0 0 0 0 0.92549 0 0 0 0.34 0"/>
<feBlend mode="normal" in2="BackgroundImageFix" result="effect1_dropShadow_0_1"/>
<feColorMatrix in="SourceAlpha" type="matrix" values="0 0 0 0 0 0 0 0 0 0 0 0 0 0 0 0 0 0 127 0" result="hardAlpha"/>
<feOffset dy="2.66037"/>
<feGaussianBlur stdDeviation="26.423"/>
<feComposite in2="hardAlpha" operator="out"/>
<feColorMatrix type="matrix" values="0 0 0 0 1 0 0 0 0 1 0 0 0 0 1 0 0 0 0.25 0"/>
<feBlend mode="normal" in2="effect1_dropShadow_0_1" result="effect2_dropShadow_0_1"/>
<feBlend mode="normal" in="SourceGraphic" in2="effect2_dropShadow_0_1" result="shape"/>
<feColorMatrix in="SourceAlpha" type="matrix" values="0 0 0 0 0 0 0 0 0 0 0 0 0 0 0 0 0 0 127 0" result="hardAlpha"/>
<feOffset/>
<feGaussianBlur stdDeviation="9.73043"/>
<feComposite in2="hardAlpha" operator="arithmetic" k2="-1" k3="1"/>
<feColorMatrix type="matrix" values="0 0 0 0 1 0 0 0 0 1 0 0 0 0 1 0 0 0 1 0"/>
<feBlend mode="normal" in2="shape" result="effect3_innerShadow_0_1"/>
</filter>
<filter id="filter1_i_0_1" x="63.8917" y="60.1817" width="129.834" height="83.3584" filterUnits="userSpaceOnUse" color-interpolation-filters="sRGB">
<feFlood flood-opacity="0" result="BackgroundImageFix"/>
<feBlend mode="normal" in="SourceGraphic" in2="BackgroundImageFix" result="shape"/>
<feColorMatrix in="SourceAlpha" type="matrix" values="0 0 0 0 0 0 0 0 0 0 0 0 0 0 0 0 0 0 127 0" result="hardAlpha"/>
<feOffset dy="2.89448"/>
<feGaussianBlur stdDeviation="1.44724"/>
<feComposite in2="hardAlpha" operator="arithmetic" k2="-1" k3="1"/>
<feColorMatrix type="matrix" values="0 0 0 0 0 0 0 0 0 0 0 0 0 0 0 0 0 0 0.25 0"/>
<feBlend mode="normal" in2="shape" result="effect1_innerShadow_0_1"/>
</filter>
<filter id="filter2_ddi_0_1" x="1.97448" y="0.814397" width="253.032" height="202.52" filterUnits="userSpaceOnUse" color-interpolation-filters="sRGB">
<feFlood flood-opacity="0" result="BackgroundImageFix"/>
<feColorMatrix in="SourceAlpha" type="matrix" values="0 0 0 0 0 0 0 0 0 0 0 0 0 0 0 0 0 0 127 0" result="hardAlpha"/>
<feOffset dy="2.66037"/>
<feGaussianBlur stdDeviation="22.1928"/>
<feComposite in2="hardAlpha" operator="out"/>
<feColorMatrix type="matrix" values="0 0 0 0 0.843137 0 0 0 0 0.886275 0 0 0 0 0.92549 0 0 0 0.34 0"/>
<feBlend mode="normal" in2="BackgroundImageFix" result="effect1_dropShadow_0_1"/>
<feColorMatrix in="SourceAlpha" type="matrix" values="0 0 0 0 0 0 0 0 0 0 0 0 0 0 0 0 0 0 127 0" result="hardAlpha"/>
<feOffset dy="2.66037"/>
<feGaussianBlur stdDeviation="26.423"/>
<feComposite in2="hardAlpha" operator="out"/>
<feColorMatrix type="matrix" values="0 0 0 0 1 0 0 0 0 1 0 0 0 0 1 0 0 0 0.25 0"/>
<feBlend mode="normal" in2="effect1_dropShadow_0_1" result="effect2_dropShadow_0_1"/>
<feBlend mode="normal" in="SourceGraphic" in2="effect2_dropShadow_0_1" result="shape"/>
<feColorMatrix in="SourceAlpha" type="matrix" values="0 0 0 0 0 0 0 0 0 0 0 0 0 0 0 0 0 0 127 0" result="hardAlpha"/>
<feOffset/>
<feGaussianBlur stdDeviation="9.73043"/>
<feComposite in2="hardAlpha" operator="arithmetic" k2="-1" k3="1"/>
<feColorMatrix type="matrix" values="0 0 0 0 1 0 0 0 0 1 0 0 0 0 1 0 0 0 1 0"/>
<feBlend mode="normal" in2="shape" result="effect3_innerShadow_0_1"/>
</filter>
<filter id="filter3_i_0_1" x="63.8788" y="58.3331" width="129.858" height="85.0554" filterUnits="userSpaceOnUse" color-interpolation-filters="sRGB">
<feFlood flood-opacity="0" result="BackgroundImageFix"/>
<feBlend mode="normal" in="SourceGraphic" in2="BackgroundImageFix" result="shape"/>
<feColorMatrix in="SourceAlpha" type="matrix" values="0 0 0 0 0 0 0 0 0 0 0 0 0 0 0 0 0 0 127 0" result="hardAlpha"/>
<feOffset dy="2.89448"/>
<feGaussianBlur stdDeviation="1.44724"/>
<feComposite in2="hardAlpha" operator="arithmetic" k2="-1" k3="1"/>
<feColorMatrix type="matrix" values="0 0 0 0 0 0 0 0 0 0 0 0 0 0 0 0 0 0 0.25 0"/>
<feBlend mode="normal" in2="shape" result="effect1_innerShadow_0_1"/>
</filter>
<filter id="filter4_dd_0_1" x="24.3396" y="19.5494" width="210.205" height="169.085" filterUnits="userSpaceOnUse" color-interpolation-filters="sRGB">
<feFlood flood-opacity="0" result="BackgroundImageFix"/>
<feColorMatrix in="SourceAlpha" type="matrix" values="0 0 0 0 0 0 0 0 0 0 0 0 0 0 0 0 0 0 127 0" result="hardAlpha"/>
<feOffset dy="2.74593"/>
<feGaussianBlur stdDeviation="22.9066"/>
<feComposite in2="hardAlpha" operator="out"/>
<feColorMatrix type="matrix" values="0 0 0 0 0.827451 0 0 0 0 0.87451 0 0 0 0 0.913725 0 0 0 0.39 0"/>
<feBlend mode="normal" in2="BackgroundImageFix" result="effect1_dropShadow_0_1"/>
<feColorMatrix in="SourceAlpha" type="matrix" values="0 0 0 0 0 0 0 0 0 0 0 0 0 0 0 0 0 0 127 0" result="hardAlpha"/>
<feOffset dy="2.74593"/>
<feGaussianBlur stdDeviation="27.2728"/>
<feComposite in2="hardAlpha" operator="out"/>
<feColorMatrix type="matrix" values="0 0 0 0 1 0 0 0 0 1 0 0 0 0 1 0 0 0 0.25 0"/>
<feBlend mode="normal" in2="effect1_dropShadow_0_1" result="effect2_dropShadow_0_1"/>
<feBlend mode="normal" in="SourceGraphic" in2="effect2_dropShadow_0_1" result="shape"/>
</filter>
<filter id="filter5_f_0_1" x="110.248" y="82.0835" width="38.5308" height="38.5307" filterUnits="userSpaceOnUse" color-interpolation-filters="sRGB">
<feFlood flood-opacity="0" result="BackgroundImageFix"/>
<feBlend mode="normal" in="SourceGraphic" in2="BackgroundImageFix" result="shape"/>
<feGaussianBlur stdDeviation="1.59643" result="effect1_foregroundBlur_0_1"/>
</filter>
<radialGradient id="paint0_diamond_0_1" cx="0" cy="0" r="1" gradientUnits="userSpaceOnUse" gradientTransform="translate(140.983 163.237) rotate(-107.47) scale(155.791 155.791)">
<stop offset="0.421875" stop-color="#A349EF"/>
<stop offset="1" stop-color="#FF65E6"/>
</radialGradient>
<radialGradient id="paint1_diamond_0_1" cx="0" cy="0" r="1" gradientUnits="userSpaceOnUse" gradientTransform="translate(93.3717 118.49) rotate(-116.259) scale(74.3479 39.3607)">
<stop stop-color="#FF9FEA"/>
<stop offset="1" stop-color="white" stop-opacity="0"/>
</radialGradient>
<linearGradient id="paint2_linear_0_1" x1="122.701" y1="56.5941" x2="154.989" y2="147.309" gradientUnits="userSpaceOnUse">
<stop stop-color="#7A96AC"/>
<stop offset="0.18" stop-color="#EAEFF3"/>
<stop offset="0.315" stop-color="#C2D4E1"/>
<stop offset="0.491919" stop-color="white"/>
<stop offset="0.615" stop-color="#D4DEE5"/>
<stop offset="0.785" stop-color="#ABBDC8"/>
<stop offset="0.955" stop-color="#BCCAD7"/>
</linearGradient>
<radialGradient id="paint3_diamond_0_1" cx="0" cy="0" r="1" gradientUnits="userSpaceOnUse" gradientTransform="translate(140.983 163.562) rotate(-107.13) scale(158.783 156.079)">
<stop offset="0.421875" stop-color="#A349EF"/>
<stop offset="1" stop-color="#FF65E6"/>
</radialGradient>
<radialGradient id="paint4_diamond_0_1" cx="0" cy="0" r="1" gradientUnits="userSpaceOnUse" gradientTransform="translate(93.3717 117.872) rotate(-115.787) scale(75.6116 39.5191)">
<stop stop-color="#FF9FEA"/>
<stop offset="1" stop-color="white" stop-opacity="0"/>
</radialGradient>
<linearGradient id="paint5_linear_0_1" x1="122.701" y1="54.6699" x2="156.205" y2="146.856" gradientUnits="userSpaceOnUse">
<stop stop-color="#7A96AC"/>
<stop offset="0.18" stop-color="#EAEFF3"/>
<stop offset="0.315" stop-color="#C2D4E1"/>
<stop offset="0.491919" stop-color="white"/>
<stop offset="0.615" stop-color="#D4DEE5"/>
<stop offset="0.785" stop-color="#ABBDC8"/>
<stop offset="0.955" stop-color="#BCCAD7"/>
</linearGradient>
<radialGradient id="paint6_diamond_0_1" cx="0" cy="0" r="1" gradientUnits="userSpaceOnUse" gradientTransform="translate(136.248 141.092) rotate(-107.47) scale(98.5625 98.5624)">
<stop offset="0.421875" stop-color="#A349EF"/>
<stop offset="1" stop-color="#FF65E6"/>
</radialGradient>
<linearGradient id="paint7_linear_0_1" x1="129.414" y1="71.3491" x2="129.414" y2="131.343" gradientUnits="userSpaceOnUse">
<stop stop-color="#38A3CA"/>
<stop offset="0.09" stop-color="#39A6C9"/>
<stop offset="0.205" stop-color="#4193D9"/>
<stop offset="0.35" stop-color="#4191D8"/>
<stop offset="0.635" stop-color="#4391DB"/>
<stop offset="0.73" stop-color="#39A5CA"/>
<stop offset="0.9" stop-color="#3F93D8"/>
<stop offset="1" stop-color="#38A0CC"/>
</linearGradient>
<linearGradient id="paint8_linear_0_1" x1="95.7648" y1="24.8863" x2="103.288" y2="25.2295" gradientUnits="userSpaceOnUse">
<stop stop-color="#40BEBE"/>
<stop offset="1" stop-color="#2361E6"/>
</linearGradient>
</defs>
</svg>
