<?xml version="1.0" encoding="utf-8"?>
<!-- Generator: Adobe Illustrator 23.0.1, SVG Export Plug-In . SVG Version: 6.00 Build 0)  -->
<svg version="1.1" id="Layer_1" xmlns="http://www.w3.org/2000/svg" xmlns:xlink="http://www.w3.org/1999/xlink" x="0px" y="0px"
	 viewBox="0 0 23.8 21.8" style="enable-background:new 0 0 23.8 21.8;" xml:space="preserve">
<style type="text/css">
	.st0{fill:url(#SVGID_1_);}
	.st1{fill:url(#SVGID_2_);}
</style>
<g>
	
		<linearGradient id="SVGID_1_" gradientUnits="userSpaceOnUse" x1="2.995" y1="23.745" x2="24.243" y2="23.0988" gradientTransform="matrix(1 0 0 -1 0 32)">
		<stop  offset="0" style="stop-color:#40BEBE"/>
		<stop  offset="1" style="stop-color:#2361E6"/>
	</linearGradient>
	<path class="st0" d="M12.3,6.5c0.4-0.1,0.8-0.4,0.9-0.9l1-4.6c0.3-1.2,2-1.2,2.2,0l1,4.6c0.1,0.4,0.4,0.8,0.9,0.9l4.6,1
		c1.2,0.3,1.2,2,0,2.2l-4.6,1c-0.4,0.1-0.8,0.4-0.9,0.9l-1,4.6c-0.3,1.2-2,1.2-2.2,0l-1-4.6c-0.1-0.4-0.4-0.8-0.9-0.9l-4.6-1
		c-1.2-0.3-1.2-2,0-2.2L12.3,6.5z"/>
</g>
<linearGradient id="SVGID_2_" gradientUnits="userSpaceOnUse" x1="-2.1696" y1="15.1169" x2="9.7304" y2="14.755" gradientTransform="matrix(1 0 0 -1 0 32)">
	<stop  offset="0" style="stop-color:#40BEBE"/>
	<stop  offset="1" style="stop-color:#2361E6"/>
</linearGradient>
<path class="st1" d="M2.5,16c0.6-0.1,1.1-0.6,1.2-1.2l0.4-1.9c0.2-0.7,1.1-0.7,1.3,0l0.4,1.9C6,15.4,6.4,15.9,7,16L9,16.4
	c0.7,0.2,0.7,1.1,0,1.3L7,18.2c-0.6,0.1-1.1,0.6-1.2,1.2l-0.4,1.9c-0.2,0.7-1.1,0.7-1.3,0l-0.4-1.9c-0.1-0.6-0.6-1.1-1.2-1.2
	l-1.9-0.4c-0.7-0.2-0.7-1.1,0-1.3L2.5,16z"/>
</svg>
