<svg width="21" height="21" viewBox="0 0 17 16" fill="none" xmlns="http://www.w3.org/2000/svg">
<rect data-v-786d05bc="" x="0.326904" y="-0.000244141" width="16" height="16" rx="8" fill="white"></rect><path data-v-786d05bc="" fill-rule="evenodd" clip-rule="evenodd" d="M8.3269 13.9998C11.6406 13.9998 14.3269 11.3135 14.3269 7.99976C14.3269 4.68605 11.6406 1.99976 8.3269 1.99976C5.0132 1.99976 2.3269 4.68605 2.3269 7.99976C2.3269 11.3135 5.0132 13.9998 8.3269 13.9998ZM11.3118 7.07188C11.6047 6.77899 11.6047 6.30411 11.3118 6.01122C11.019 5.71833 10.5441 5.71833 10.2512 6.01122L7.40637 8.85604L6.40252 7.85221C6.10962 7.55932 5.63475 7.55932 5.34186 7.85222C5.04897 8.14512 5.04897 8.61999 5.34187 8.91288L6.87605 10.447C7.16894 10.7399 7.64381 10.7399 7.9367 10.447L11.3118 7.07188Z" /> 
</svg>
