<svg data-v-786d05bc="" width="14" height="14" viewBox="0 0 14 14" fill="none" xmlns="http://www.w3.org/2000/svg"><path data-v-786d05bc="" fill-rule="evenodd" clip-rule="evenodd" d="M2.50509 2.50509C2.73299 2.27719 3.10249 2.27719 3.33039 2.50509L7.00277 6.17747L10.6751 2.50509C10.903 2.27719 11.2725 2.27719 11.5004 2.50509C11.7284 2.73299 11.7284 3.10249 11.5004 3.33039L7.82807 7.00277L11.5004 10.6751C11.7284 10.903 11.7284 11.2725 11.5004 11.5004C11.2725 11.7284 10.903 11.7284 10.6751 11.5004L7.00277 7.82807L3.33039 11.5004C3.10249 11.7284 2.73299 11.7284 2.50509 11.5004C2.27719 11.2725 2.27719 10.903 2.50509 10.6751L6.17747 7.00277L2.50509 3.33039C2.27719 3.10249 2.27719 2.73299 2.50509 2.50509Z" fill="#7E7D84"></path><path data-v-786d05bc="" fill-rule="evenodd" clip-rule="evenodd" d="M2.1956 2.1956C2.59443 1.79678 3.24105 1.79678 3.63988 2.1956L7.00277 5.5585L10.3657 2.1956C10.7645 1.79678 11.4111 1.79678 11.8099 2.1956C12.2088 2.59443 12.2088 3.24105 11.8099 3.63988L8.44705 7.00277L11.8099 10.3657C12.2088 10.7645 12.2088 11.4111 11.8099 11.8099C11.4111 12.2088 10.7645 12.2088 10.3657 11.8099L7.00277 8.44705L3.63988 11.8099C3.24105 12.2088 2.59443 12.2088 2.1956 11.8099C1.79678 11.4111 1.79678 10.7645 2.1956 10.3657L5.5585 7.00277L2.1956 3.63988C1.79678 3.24105 1.79678 2.59443 2.1956 2.1956ZM3.0209 2.81458C2.96393 2.7576 2.87155 2.7576 2.81458 2.81458C2.7576 2.87155 2.7576 2.96393 2.81458 3.0209L6.79645 7.00277L2.81458 10.9846C2.7576 11.0416 2.7576 11.134 2.81458 11.191C2.87155 11.2479 2.96393 11.2479 3.0209 11.191L7.00277 7.2091L10.9846 11.191C11.0416 11.2479 11.134 11.2479 11.191 11.191C11.2479 11.134 11.2479 11.0416 11.191 10.9846L7.2091 7.00277L11.191 3.0209C11.2479 2.96393 11.2479 2.87155 11.191 2.81458C11.134 2.7576 11.0416 2.7576 10.9846 2.81458L7.00277 6.79645L3.0209 2.81458Z" fill="#7E7D84"></path></svg>