<svg width="11" height="11" viewBox="0 0 11 11" fill="none" xmlns="http://www.w3.org/2000/svg">
<path fill-rule="evenodd" clip-rule="evenodd" d="M9.77278 7.70457L9.77278 8.7273C9.77278 9.2698 9.55728 9.79008 9.17368 10.1737C8.79008 10.5573 8.2698 10.7728 7.72731 10.7728L2.27269 10.7728C1.7302 10.7728 1.20992 10.5573 0.826322 10.1737C0.442721 9.79008 0.227215 9.2698 0.227215 8.72731L0.227215 3.27269C0.227215 2.7302 0.44272 2.20992 0.826322 1.82632C1.20992 1.44272 1.7302 1.22722 2.27269 1.22722L3.29543 1.22722C3.47627 1.22722 3.64969 1.29905 3.77756 1.42692C3.90542 1.55479 3.97726 1.72821 3.97726 1.90904C3.97726 2.08987 3.90542 2.2633 3.77756 2.39117C3.64969 2.51903 3.47627 2.59087 3.29543 2.59087L2.27269 2.59087C2.09186 2.59087 1.91844 2.6627 1.79057 2.79057C1.6627 2.91844 1.59087 3.09186 1.59087 3.27269L1.59087 8.72731C1.59087 8.90814 1.6627 9.08156 1.79057 9.20943C1.91844 9.3373 2.09186 9.40913 2.27269 9.40913L7.72731 9.40913C7.90814 9.40913 8.08156 9.3373 8.20943 9.20943C8.3373 9.08156 8.40913 8.90814 8.40913 8.72731L8.40913 7.70457C8.40913 7.52373 8.48097 7.35031 8.60883 7.22244C8.7367 7.09457 8.91013 7.02274 9.09096 7.02274C9.27179 7.02274 9.44521 7.09457 9.57308 7.22244C9.70095 7.35031 9.77278 7.52373 9.77278 7.70457Z" fill="#181526"/>
<path fill-rule="evenodd" clip-rule="evenodd" d="M0.665657 10.3343C0.239444 9.90813 -7.29953e-08 9.33006 -9.93426e-08 8.72731L-3.37771e-07 3.27269C-3.64119e-07 2.66994 0.239444 2.09187 0.665656 1.66566C1.09187 1.23944 1.66994 1 2.27269 1L3.29543 1C3.53653 1 3.76774 1.09577 3.93822 1.26625C4.1087 1.43673 4.20448 1.66795 4.20448 1.90904C4.20448 2.15014 4.1087 2.38135 3.93822 2.55183C3.76774 2.72231 3.53653 2.81808 3.29543 2.81808L2.27269 2.81808C2.15212 2.81808 2.03649 2.86598 1.95124 2.95124C1.86598 3.03649 1.81808 3.15212 1.81808 3.27269L1.81808 8.72731C1.81808 8.84788 1.86598 8.96351 1.95124 9.04876C2.03649 9.13402 2.15212 9.18192 2.27269 9.18192L7.72731 9.18192C7.84788 9.18192 7.96351 9.13402 8.04876 9.04876C8.13402 8.96351 8.18192 8.84788 8.18192 8.72731L8.18192 7.70457C8.18192 7.46347 8.27769 7.23225 8.44817 7.06178C8.61865 6.8913 8.84986 6.79552 9.09096 6.79552C9.33205 6.79552 9.56327 6.8913 9.73375 7.06178C9.90423 7.23225 10 7.46347 10 7.70457L10 8.7273C10 9.33006 9.76056 9.90813 9.33434 10.3343C8.90813 10.7606 8.33006 11 7.72731 11L2.27269 11C1.66994 11 1.09187 10.7606 0.665657 10.3343ZM0.454431 8.72731C0.454431 9.20954 0.645997 9.67202 0.986988 10.013C1.32798 10.354 1.79046 10.5456 2.27269 10.5456L7.72731 10.5456C8.20954 10.5456 8.67202 10.354 9.01301 10.013C9.354 9.67202 9.54557 9.20954 9.54557 8.7273L9.54557 7.70457C9.54557 7.58399 9.49767 7.46836 9.41242 7.38311C9.32716 7.29785 9.21153 7.24995 9.09096 7.24995C8.97039 7.24995 8.85475 7.29785 8.7695 7.38311C8.68424 7.46836 8.63635 7.58399 8.63635 7.70457L8.63635 8.72731C8.63635 8.9684 8.54058 9.19962 8.3701 9.37009C8.19962 9.54057 7.9684 9.63635 7.72731 9.63635L2.27269 9.63635C2.0316 9.63635 1.80038 9.54057 1.6299 9.37009C1.45943 9.19962 1.36365 8.9684 1.36365 8.72731L1.36365 3.27269C1.36365 3.0316 1.45943 2.80038 1.6299 2.6299C1.80038 2.45942 2.0316 2.36365 2.27269 2.36365L3.29543 2.36365C3.416 2.36365 3.53164 2.31576 3.61689 2.2305C3.70215 2.14525 3.75004 2.02961 3.75004 1.90904C3.75004 1.78847 3.70215 1.67284 3.61689 1.58758C3.53164 1.50233 3.416 1.45443 3.29543 1.45443L2.27269 1.45443C1.79046 1.45443 1.32798 1.646 0.986988 1.98699C0.645997 2.32798 0.45443 2.79046 0.45443 3.27269L0.454431 8.72731Z" fill="#181526"/>
<path fill-rule="evenodd" clip-rule="evenodd" d="M6.52821 1C6.52821 0.585786 6.864 0.25 7.27821 0.25L9.99997 0.25C10.4142 0.25 10.75 0.585787 10.75 1V3.72184C10.75 4.13606 10.4142 4.47184 9.99997 4.47184C9.58575 4.47184 9.24997 4.13606 9.24997 3.72184V2.81068L6.53033 5.53037C6.23744 5.82326 5.76257 5.82327 5.46967 5.53038C5.17678 5.23748 5.17677 4.76261 5.46967 4.46971L8.18933 1.75H7.27821C6.86399 1.75 6.52821 1.41421 6.52821 1Z" fill="#181526"/>
</svg>
