<?xml version="1.0" encoding="utf-8"?>
<!-- Generator: Adobe Illustrator 23.0.1, SVG Export Plug-In . SVG Version: 6.00 Build 0)  -->
<svg version="1.1" id="Layer_1" xmlns="http://www.w3.org/2000/svg" xmlns:xlink="http://www.w3.org/1999/xlink" x="0px" y="0px"
	 viewBox="0 0 48.4 43.8" style="enable-background:new 0 0 48.4 43.8;" xml:space="preserve">
<style type="text/css">
	.st0{fill:url(#SVGID_1_);}
	.st1{fill:url(#SVGID_2_);}
	.st2{fill:url(#SVGID_3_);}
	.st3{fill:#E3F0FF;}
	.st4{fill:url(#SVGID_4_);}
	.st5{fill:url(#SVGID_5_);}
	.st6{fill:#FFFFFF;}
	.st7{fill:#FFFFFF;fill-opacity:0.9;}
	.st8{fill:url(#SVGID_6_);}
	.st9{fill:url(#SVGID_7_);}
	.st10{fill:url(#SVGID_8_);}
	.st11{fill:url(#SVGID_9_);}
	.st12{fill:url(#SVGID_10_);}
	.st13{fill-rule:evenodd;clip-rule:evenodd;fill:url(#SVGID_11_);}
</style>
<g>
	
		<radialGradient id="SVGID_1_" cx="-292.9503" cy="416.3812" r="1" gradientTransform="matrix(-18.9138 -29.3642 -29.3642 18.9138 6723.7202 -16445.418)" gradientUnits="userSpaceOnUse">
		<stop  offset="0.4219" style="stop-color:#A349EF"/>
		<stop  offset="1" style="stop-color:#FF65E6"/>
	</radialGradient>
	<path class="st0" d="M27.2,31.5c-1.9,0.5-2.9,0.8-3.8,0.7c-0.8-0.1-1.5-0.3-2.2-0.8c-0.8-0.5-1.3-1.3-2.5-3L17,26
		c-0.6-0.8-0.9-1.3-1.1-1.7c-0.2-0.4-0.3-0.8-0.3-1.2c-0.1-0.5,0-1,0-2.1l0.2-3c0.1-2,0.2-3,0.6-3.8c0.3-0.7,0.8-1.3,1.5-1.8
		c0.7-0.5,1.7-0.8,3.6-1.3l14-3.8c1.9-0.5,2.9-0.8,3.8-0.7c0.8,0.1,1.5,0.3,2.1,0.8c0.8,0.5,1.3,1.3,2.5,2.9l1.8,2.5
		c0.6,0.9,0.9,1.3,1.1,1.8c0.2,0.4,0.3,0.8,0.3,1.3c0.1,0.5,0,1.1-0.1,2.1l-0.3,3c-0.2,2-0.3,2.9-0.7,3.8c-0.3,0.7-0.8,1.3-1.5,1.7
		c-0.7,0.5-1.7,0.8-3.6,1.3L27.2,31.5z"/>
	
		<radialGradient id="SVGID_2_" cx="-305.3217" cy="422.0005" r="1" gradientTransform="matrix(-11.0614 -12.4697 -6.6016 5.856 -566.5263 -6253.2188)" gradientUnits="userSpaceOnUse">
		<stop  offset="0" style="stop-color:#FF9FEA"/>
		<stop  offset="1" style="stop-color:#FFFFFF;stop-opacity:0"/>
	</radialGradient>
	<path class="st1" d="M27.2,31.5c-1.9,0.5-2.9,0.8-3.8,0.7c-0.8-0.1-1.5-0.3-2.2-0.8c-0.8-0.5-1.3-1.3-2.5-3L17,26
		c-0.6-0.8-0.9-1.3-1.1-1.7c-0.2-0.4-0.3-0.8-0.3-1.2c-0.1-0.5,0-1,0-2.1l0.2-3c0.1-2,0.2-3,0.6-3.8c0.3-0.7,0.8-1.3,1.5-1.8
		c0.7-0.5,1.7-0.8,3.6-1.3l14-3.8c1.9-0.5,2.9-0.8,3.8-0.7c0.8,0.1,1.5,0.3,2.1,0.8c0.8,0.5,1.3,1.3,2.5,2.9l1.8,2.5
		c0.6,0.9,0.9,1.3,1.1,1.8c0.2,0.4,0.3,0.8,0.3,1.3c0.1,0.5,0,1.1-0.1,2.1l-0.3,3c-0.2,2-0.3,2.9-0.7,3.8c-0.3,0.7-0.8,1.3-1.5,1.7
		c-0.7,0.5-1.7,0.8-3.6,1.3L27.2,31.5z"/>
	
		<linearGradient id="SVGID_3_" gradientUnits="userSpaceOnUse" x1="25.846" y1="30.2645" x2="38.2001" y2="12.5608" gradientTransform="matrix(1 0 0 -1 0 41.6471)">
		<stop  offset="0" style="stop-color:#7A96AC"/>
		<stop  offset="0.18" style="stop-color:#EAEFF3"/>
		<stop  offset="0.315" style="stop-color:#C2D4E1"/>
		<stop  offset="0.4919" style="stop-color:#FFFFFF"/>
		<stop  offset="0.615" style="stop-color:#D4DEE5"/>
		<stop  offset="0.785" style="stop-color:#ABBDC8"/>
		<stop  offset="0.955" style="stop-color:#BCCAD7"/>
	</linearGradient>
	<path class="st2" d="M27.2,31.5c-1.9,0.5-2.9,0.8-3.8,0.7c-0.8-0.1-1.5-0.3-2.2-0.8c-0.8-0.5-1.3-1.3-2.5-3L17,26
		c-0.6-0.8-0.9-1.3-1.1-1.7c-0.2-0.4-0.3-0.8-0.3-1.2c-0.1-0.5,0-1,0-2.1l0.2-3c0.1-2,0.2-3,0.6-3.8c0.3-0.7,0.8-1.3,1.5-1.8
		c0.7-0.5,1.7-0.8,3.6-1.3l14-3.8c1.9-0.5,2.9-0.8,3.8-0.7c0.8,0.1,1.5,0.3,2.1,0.8c0.8,0.5,1.3,1.3,2.5,2.9l1.8,2.5
		c0.6,0.9,0.9,1.3,1.1,1.8c0.2,0.4,0.3,0.8,0.3,1.3c0.1,0.5,0,1.1-0.1,2.1l-0.3,3c-0.2,2-0.3,2.9-0.7,3.8c-0.3,0.7-0.8,1.3-1.5,1.7
		c-0.7,0.5-1.7,0.8-3.6,1.3L27.2,31.5z"/>
</g>
<g>
	<path class="st3" d="M28.2,29.6c-1.9,0.5-2.8,0.8-3.7,0.7c-0.8-0.1-1.5-0.3-2.1-0.8c-0.8-0.5-1.3-1.3-2.5-2.9l-0.8-1.1
		c-0.6-0.9-1-1.3-1.2-1.8c-0.2-0.4-0.3-0.8-0.4-1.3c-0.1-0.5,0-1.1,0.1-2.1l0.1-1.3c0.2-2,0.3-2.9,0.7-3.7c0.3-0.7,0.8-1.3,1.5-1.7
		c0.7-0.5,1.7-0.8,3.6-1.3L34.8,9c1.9-0.5,2.9-0.8,3.8-0.7c0.8,0.1,1.5,0.4,2.2,0.8c0.8,0.5,1.3,1.3,2.5,3l0.7,1.1
		c0.6,0.8,0.8,1.2,1,1.7c0.2,0.4,0.3,0.8,0.3,1.2c0.1,0.5,0,1,0,2l-0.1,1.3c-0.1,2-0.2,3-0.6,3.8c-0.3,0.7-0.8,1.3-1.5,1.8
		c-0.7,0.6-1.7,0.8-3.6,1.4L28.2,29.6z"/>
</g>
<g>
	
		<radialGradient id="SVGID_4_" cx="-299.5816" cy="416.1244" r="1" gradientTransform="matrix(-11.966 -18.5775 -18.5775 11.966 4181.2588 -10517.1523)" gradientUnits="userSpaceOnUse">
		<stop  offset="0.4219" style="stop-color:#A349EF"/>
		<stop  offset="1" style="stop-color:#FF65E6"/>
	</radialGradient>
	<path class="st4" d="M28.9,27.2c-1.3,0.3-1.9,0.5-2.5,0.5c-0.5,0-1-0.2-1.5-0.5c-0.5-0.3-1-0.8-1.8-1.8l-0.8-0.9
		c-0.6-0.7-0.9-1.1-1.1-1.5c-0.2-0.4-0.3-0.7-0.3-1.1c0-0.5,0-0.9,0.2-1.9l0.2-1.2c0.2-1.3,0.3-2,0.6-2.5c0.3-0.5,0.6-0.8,1-1.1
		c0.5-0.4,1.1-0.5,2.4-0.9l9.2-2.5c1.3-0.4,2-0.5,2.6-0.5c0.5,0,1,0.2,1.5,0.5c0.5,0.3,1,0.9,1.8,1.9l0.7,1c0.5,0.7,0.8,1,1,1.4
		c0.1,0.3,0.2,0.7,0.3,1c0,0.4,0,0.9-0.1,1.7L42.2,20c-0.2,1.4-0.3,2-0.6,2.6c-0.3,0.5-0.6,0.9-1,1.2c-0.5,0.4-1.2,0.6-2.5,0.9
		L28.9,27.2z"/>
	
		<linearGradient id="SVGID_5_" gradientUnits="userSpaceOnUse" x1="29.9052" y1="28.6699" x2="33.4581" y2="15.6971" gradientTransform="matrix(1 0 0 -1 0 41.6471)">
		<stop  offset="0" style="stop-color:#38A3CA"/>
		<stop  offset="9.000000e-02" style="stop-color:#39A6C9"/>
		<stop  offset="0.205" style="stop-color:#4193D9"/>
		<stop  offset="0.35" style="stop-color:#4191D8"/>
		<stop  offset="0.635" style="stop-color:#4391DB"/>
		<stop  offset="0.73" style="stop-color:#39A5CA"/>
		<stop  offset="0.9" style="stop-color:#3F93D8"/>
		<stop  offset="1" style="stop-color:#38A0CC"/>
	</linearGradient>
	<path class="st5" d="M28.9,27.2c-1.3,0.3-1.9,0.5-2.5,0.5c-0.5,0-1-0.2-1.5-0.5c-0.5-0.3-1-0.8-1.8-1.8l-0.8-0.9
		c-0.6-0.7-0.9-1.1-1.1-1.5c-0.2-0.4-0.3-0.7-0.3-1.1c0-0.5,0-0.9,0.2-1.9l0.2-1.2c0.2-1.3,0.3-2,0.6-2.5c0.3-0.5,0.6-0.8,1-1.1
		c0.5-0.4,1.1-0.5,2.4-0.9l9.2-2.5c1.3-0.4,2-0.5,2.6-0.5c0.5,0,1,0.2,1.5,0.5c0.5,0.3,1,0.9,1.8,1.9l0.7,1c0.5,0.7,0.8,1,1,1.4
		c0.1,0.3,0.2,0.7,0.3,1c0,0.4,0,0.9-0.1,1.7L42.2,20c-0.2,1.4-0.3,2-0.6,2.6c-0.3,0.5-0.6,0.9-1,1.2c-0.5,0.4-1.2,0.6-2.5,0.9
		L28.9,27.2z"/>
</g>
<path class="st6" d="M28.2,20.3c0.8-0.5,2.4-1.8,2.4-4.2c0-0.1,0.2-0.2,0.2-0.1c0.5,0.8,1.8,2.3,4.2,2.4c0.1,0,0.2,0.1,0.1,0.2
	c-0.7,0.5-2.3,1.7-2.4,4.2c0,0.1-0.2,0.2-0.2,0.1c-0.5-0.8-1.7-2.3-4.2-2.4C28.2,20.5,28.1,20.3,28.2,20.3z"/>
<g>
	<path class="st7" d="M28.2,20.3c0.8-0.5,2.4-1.8,2.4-4.2c0-0.1,0.2-0.2,0.2-0.1c0.5,0.8,1.8,2.3,4.2,2.4c0.1,0,0.2,0.1,0.1,0.2
		c-0.7,0.5-2.3,1.7-2.4,4.2c0,0.1-0.2,0.2-0.2,0.1c-0.5-0.8-1.7-2.3-4.2-2.4C28.2,20.5,28.1,20.3,28.2,20.3z"/>
</g>
<g>
	
		<radialGradient id="SVGID_6_" cx="-295.0195" cy="408.1881" r="1" gradientTransform="matrix(-1.0347 -24.9023 -24.9023 1.0347 9871.1299 -7748.3936)" gradientUnits="userSpaceOnUse">
		<stop  offset="0.4219" style="stop-color:#A349EF"/>
		<stop  offset="1" style="stop-color:#FF65E6"/>
	</radialGradient>
	<path class="st8" d="M3.7,15.9c-0.8-0.2-1.2-0.3-1.5-0.5c-0.3-0.2-0.5-0.4-0.6-0.7c-0.2-0.3-0.2-0.8-0.3-1.6L0.9,8.5
		c0-0.4-0.1-0.6,0-0.9C0.9,7.4,1,7.3,1,7.1c0.1-0.2,0.2-0.4,0.4-0.7l2.6-3.8c0.5-0.7,0.7-1,1-1.2C5.4,1.2,5.7,1.1,6,1
		c0.4,0,0.8,0.1,1.6,0.3l13.2,3.6c0.8,0.2,1.2,0.3,1.5,0.5c0.3,0.2,0.5,0.4,0.6,0.7c0.2,0.3,0.2,0.7,0.3,1.6l0.4,4.6
		c0,0.4,0.1,0.7,0,0.9c0,0.2-0.1,0.4-0.1,0.5c-0.1,0.2-0.2,0.4-0.5,0.7l-2.7,3.8c-0.5,0.7-0.7,1-1,1.2c-0.3,0.2-0.6,0.3-0.9,0.3
		c-0.4,0-0.8-0.1-1.6-0.3L3.7,15.9z"/>
	
		<radialGradient id="SVGID_7_" cx="-312.2297" cy="391.2038" r="1" gradientTransform="matrix(-2.3038 -11.6692 -6.1778 1.2196 1703.5298 -4108.856)" gradientUnits="userSpaceOnUse">
		<stop  offset="0" style="stop-color:#FF9FEA"/>
		<stop  offset="1" style="stop-color:#FFFFFF;stop-opacity:0"/>
	</radialGradient>
	<path class="st9" d="M3.7,15.9c-0.8-0.2-1.2-0.3-1.5-0.5c-0.3-0.2-0.5-0.4-0.6-0.7c-0.2-0.3-0.2-0.8-0.3-1.6L0.9,8.5
		c0-0.4-0.1-0.6,0-0.9C0.9,7.4,1,7.3,1,7.1c0.1-0.2,0.2-0.4,0.4-0.7l2.6-3.8c0.5-0.7,0.7-1,1-1.2C5.4,1.2,5.7,1.1,6,1
		c0.4,0,0.8,0.1,1.6,0.3l13.2,3.6c0.8,0.2,1.2,0.3,1.5,0.5c0.3,0.2,0.5,0.4,0.6,0.7c0.2,0.3,0.2,0.7,0.3,1.6l0.4,4.6
		c0,0.4,0.1,0.7,0,0.9c0,0.2-0.1,0.4-0.1,0.5c-0.1,0.2-0.2,0.4-0.5,0.7l-2.7,3.8c-0.5,0.7-0.7,1-1,1.2c-0.3,0.2-0.6,0.3-0.9,0.3
		c-0.4,0-0.8-0.1-1.6-0.3L3.7,15.9z"/>
	
		<linearGradient id="SVGID_8_" gradientUnits="userSpaceOnUse" x1="11.7014" y1="38.1361" x2="12.9105" y2="22.779" gradientTransform="matrix(1 0 0 -1 0 41.6471)">
		<stop  offset="0" style="stop-color:#7A96AC"/>
		<stop  offset="0.18" style="stop-color:#EAEFF3"/>
		<stop  offset="0.315" style="stop-color:#C2D4E1"/>
		<stop  offset="0.4919" style="stop-color:#FFFFFF"/>
		<stop  offset="0.615" style="stop-color:#D4DEE5"/>
		<stop  offset="0.785" style="stop-color:#ABBDC8"/>
		<stop  offset="0.955" style="stop-color:#BCCAD7"/>
	</linearGradient>
	<path class="st10" d="M3.7,15.9c-0.8-0.2-1.2-0.3-1.5-0.5c-0.3-0.2-0.5-0.4-0.6-0.7c-0.2-0.3-0.2-0.8-0.3-1.6L0.9,8.5
		c0-0.4-0.1-0.6,0-0.9C0.9,7.4,1,7.3,1,7.1c0.1-0.2,0.2-0.4,0.4-0.7l2.6-3.8c0.5-0.7,0.7-1,1-1.2C5.4,1.2,5.7,1.1,6,1
		c0.4,0,0.8,0.1,1.6,0.3l13.2,3.6c0.8,0.2,1.2,0.3,1.5,0.5c0.3,0.2,0.5,0.4,0.6,0.7c0.2,0.3,0.2,0.7,0.3,1.6l0.4,4.6
		c0,0.4,0.1,0.7,0,0.9c0,0.2-0.1,0.4-0.1,0.5c-0.1,0.2-0.2,0.4-0.5,0.7l-2.7,3.8c-0.5,0.7-0.7,1-1,1.2c-0.3,0.2-0.6,0.3-0.9,0.3
		c-0.4,0-0.8-0.1-1.6-0.3L3.7,15.9z"/>
</g>
<g>
	<path class="st3" d="M5,15.1c-0.8-0.2-1.2-0.3-1.5-0.5c-0.3-0.2-0.5-0.4-0.6-0.7c-0.2-0.3-0.2-0.7-0.3-1.5L2.3,8.9
		c0-0.4-0.1-0.7,0-0.9c0-0.2,0.1-0.4,0.1-0.5c0.1-0.2,0.2-0.4,0.5-0.8l2-2.8c0.5-0.7,0.7-1,1-1.2c0.3-0.2,0.6-0.3,0.9-0.3
		c0.4,0,0.8,0.1,1.6,0.3l11.3,3c0.8,0.2,1.2,0.3,1.5,0.6c0.3,0.2,0.5,0.4,0.6,0.7C22,7.4,22,7.8,22.1,8.6l0.2,3.4c0,0.4,0,0.6,0,0.8
		c0,0.2-0.1,0.3-0.1,0.5c-0.1,0.2-0.2,0.4-0.4,0.7l-1.9,2.8c-0.5,0.7-0.7,1-1,1.3c-0.3,0.2-0.6,0.3-0.9,0.3c-0.4,0-0.8-0.1-1.6-0.3
		L5,15.1z"/>
</g>
<g>
	
		<radialGradient id="SVGID_9_" cx="-302.8523" cy="403.1742" r="1" gradientTransform="matrix(-0.6546 -15.7547 -15.7547 0.6546 6165.3896 -5018.2622)" gradientUnits="userSpaceOnUse">
		<stop  offset="0.4219" style="stop-color:#A349EF"/>
		<stop  offset="1" style="stop-color:#FF65E6"/>
	</radialGradient>
	<path class="st11" d="M7.4,14.2C6.6,14,6.3,13.9,6,13.7c-0.2-0.2-0.4-0.4-0.6-0.7c-0.2-0.3-0.2-0.7-0.4-1.4L4.7,9.9
		C4.6,9.4,4.6,9.1,4.6,8.8c0-0.2,0.1-0.4,0.2-0.6C4.9,8,5.1,7.8,5.4,7.3L6.5,6c0.5-0.6,0.7-0.9,1-1.1c0.3-0.2,0.5-0.2,0.8-0.3
		c0.4,0,0.7,0.1,1.4,0.3l7.6,2c0.8,0.2,1.1,0.3,1.4,0.5c0.2,0.2,0.5,0.4,0.6,0.7c0.2,0.3,0.2,0.7,0.3,1.5l0.2,1.7
		c0.1,0.5,0.1,0.7,0.1,1c0,0.2-0.1,0.4-0.2,0.6c-0.1,0.2-0.3,0.4-0.6,0.8l-1,1.4c-0.5,0.6-0.7,0.9-1,1.1c-0.3,0.2-0.6,0.3-0.9,0.3
		c-0.4,0-0.7-0.1-1.5-0.3L7.4,14.2z"/>
	
		<linearGradient id="SVGID_10_" gradientUnits="userSpaceOnUse" x1="13.6165" y1="35.6899" x2="11.1177" y2="26.4229" gradientTransform="matrix(1 0 0 -1 0 41.6471)">
		<stop  offset="0" style="stop-color:#38A3CA"/>
		<stop  offset="9.000000e-02" style="stop-color:#39A6C9"/>
		<stop  offset="0.205" style="stop-color:#4193D9"/>
		<stop  offset="0.35" style="stop-color:#4191D8"/>
		<stop  offset="0.635" style="stop-color:#4391DB"/>
		<stop  offset="0.73" style="stop-color:#39A5CA"/>
		<stop  offset="0.9" style="stop-color:#3F93D8"/>
		<stop  offset="1" style="stop-color:#38A0CC"/>
	</linearGradient>
	<path class="st12" d="M7.4,14.2C6.6,14,6.3,13.9,6,13.7c-0.2-0.2-0.4-0.4-0.6-0.7c-0.2-0.3-0.2-0.7-0.4-1.4L4.7,9.9
		C4.6,9.4,4.6,9.1,4.6,8.8c0-0.2,0.1-0.4,0.2-0.6C4.9,8,5.1,7.8,5.4,7.3L6.5,6c0.5-0.6,0.7-0.9,1-1.1c0.3-0.2,0.5-0.2,0.8-0.3
		c0.4,0,0.7,0.1,1.4,0.3l7.6,2c0.8,0.2,1.1,0.3,1.4,0.5c0.2,0.2,0.5,0.4,0.6,0.7c0.2,0.3,0.2,0.7,0.3,1.5l0.2,1.7
		c0.1,0.5,0.1,0.7,0.1,1c0,0.2-0.1,0.4-0.2,0.6c-0.1,0.2-0.3,0.4-0.6,0.8l-1,1.4c-0.5,0.6-0.7,0.9-1,1.1c-0.3,0.2-0.6,0.3-0.9,0.3
		c-0.4,0-0.7-0.1-1.5-0.3L7.4,14.2z"/>
</g>
<path class="st6" d="M10,9.9c0.6,0,2.1-0.2,3-1.7c0-0.1,0.2,0,0.2,0c0,0.7,0.3,2.1,1.7,3c0.1,0,0,0.1,0,0.2c-0.6,0-2,0.2-3,1.7
	c0,0.1-0.2,0-0.2,0c0-0.6-0.2-2-1.7-3C9.9,10,9.9,9.9,10,9.9z"/>
<g>
	<path class="st7" d="M10,9.9c0.6,0,2.1-0.2,3-1.7c0-0.1,0.2,0,0.2,0c0,0.7,0.3,2.1,1.7,3c0.1,0,0,0.1,0,0.2c-0.6,0-2,0.2-3,1.7
		c0,0.1-0.2,0-0.2,0c0-0.6-0.2-2-1.7-3C9.9,10,9.9,9.9,10,9.9z"/>
</g>
<linearGradient id="SVGID_11_" gradientUnits="userSpaceOnUse" x1="-4.830701e-03" y1="5.5903" x2="16.3122" y2="5.0528" gradientTransform="matrix(1 0 0 -1 0 41.6471)">
	<stop  offset="0" style="stop-color:#40BEBE"/>
	<stop  offset="1" style="stop-color:#2361E6"/>
</linearGradient>
<path class="st13" d="M9.4,30.3c0.3,0,0.5,0.2,0.5,0.5v2.7c0,0.3-0.2,0.5-0.5,0.5c-0.3,0-0.5-0.2-0.5-0.5v-2.7
	C8.9,30.5,9.2,30.3,9.4,30.3z M4.4,32.8c0.2-0.2,0.5-0.3,0.7-0.1l2.2,1.7c0.2,0.2,0.3,0.5,0.1,0.7c-0.2,0.2-0.5,0.3-0.7,0.1
	l-2.2-1.7C4.3,33.3,4.2,33,4.4,32.8z M14.5,32.8c0.2,0.2,0.1,0.5-0.1,0.7l-2.1,1.7c-0.2,0.2-0.5,0.1-0.7-0.1
	c-0.2-0.2-0.1-0.5,0.1-0.7l2.1-1.7C14,32.5,14.3,32.6,14.5,32.8z M12.4,37c0.1-0.3,0.3-0.4,0.6-0.4l2.5,0.6c0.3,0.1,0.4,0.3,0.4,0.6
	c-0.1,0.3-0.3,0.4-0.6,0.4l-2.5-0.6C12.5,37.5,12.4,37.2,12.4,37z M6.8,37c0.1,0.3-0.1,0.5-0.4,0.6l-2.8,0.6C3.3,38.3,3,38.1,3,37.8
	c-0.1-0.3,0.1-0.5,0.4-0.6l2.8-0.6C6.4,36.5,6.7,36.7,6.8,37z M8.1,39c0.2,0.1,0.4,0.4,0.2,0.7L7.2,42c-0.1,0.2-0.4,0.4-0.7,0.2
	c-0.2-0.1-0.4-0.4-0.2-0.7l1.1-2.4C7.6,39,7.9,38.9,8.1,39z M10.4,39c0.2-0.1,0.5,0,0.7,0.2l1.3,2.4c0.1,0.2,0,0.5-0.2,0.7
	c-0.2,0.1-0.5,0-0.7-0.2l-1.3-2.4C10.1,39.4,10.2,39.1,10.4,39z"/>
</svg>
